<?xml version="1.0" standalone="no"?>
<!DOCTYPE svg PUBLIC "-//W3C//DTD SVG 20010904//EN"
 "http://www.w3.org/TR/2001/REC-SVG-20010904/DTD/svg10.dtd">
<svg version="1.0" xmlns="http://www.w3.org/2000/svg"
 width="1269.000000pt" height="1366.000000pt" viewBox="0 0 1269.000000 1366.000000"
 preserveAspectRatio="xMidYMid meet">

<g transform="translate(0.000000,1366.000000) scale(0.100000,-0.100000)"
fill="#FFFFFF" stroke="none">
<path d="M4400 11510 c0 -6 -42 -10 -105 -10 -71 0 -117 -5 -142 -15 -19 -8
-62 -15 -94 -15 -33 0 -59 -4 -59 -9 0 -5 -27 -12 -60 -16 -33 -4 -60 -11 -60
-16 0 -5 -21 -9 -46 -9 -27 0 -51 -6 -60 -15 -9 -8 -33 -15 -55 -15 -21 0 -39
-4 -39 -9 0 -5 -13 -12 -30 -16 -16 -4 -30 -11 -30 -16 0 -5 -18 -9 -40 -9
-22 0 -40 -4 -40 -10 0 -5 -18 -13 -40 -16 -22 -4 -40 -10 -40 -14 0 -5 -13
-11 -30 -15 -16 -4 -30 -11 -30 -16 0 -5 -11 -9 -24 -9 -14 0 -31 -7 -40 -15
-8 -8 -26 -15 -40 -15 -14 0 -26 -4 -26 -10 0 -5 -11 -12 -25 -16 -14 -3 -25
-10 -25 -15 0 -5 -11 -9 -24 -9 -13 0 -26 -7 -30 -15 -3 -8 -17 -15 -31 -15
-14 0 -25 -4 -25 -10 0 -5 -11 -12 -25 -16 -14 -3 -25 -10 -25 -15 0 -5 -7 -9
-15 -9 -8 0 -15 -4 -15 -10 0 -5 -11 -12 -25 -16 -14 -3 -25 -10 -25 -14 0 -4
-11 -11 -25 -14 -14 -4 -25 -11 -25 -16 0 -6 -7 -10 -15 -10 -8 0 -15 -4 -15
-10 0 -5 -11 -12 -25 -16 -14 -3 -25 -10 -25 -15 0 -5 -7 -9 -15 -9 -8 0 -15
-6 -15 -14 0 -8 -11 -17 -25 -20 -14 -4 -25 -11 -25 -16 0 -6 -5 -10 -11 -10
-7 0 -22 -11 -35 -25 -13 -14 -32 -25 -44 -25 -11 0 -20 -7 -20 -15 0 -8 -5
-15 -11 -15 -6 0 -28 -18 -50 -40 -22 -22 -46 -40 -54 -40 -8 0 -15 -7 -15
-15 0 -8 -7 -15 -15 -15 -8 0 -15 -4 -15 -10 0 -5 -7 -10 -15 -10 -8 0 -15 -5
-15 -11 0 -14 -55 -69 -69 -69 -6 0 -11 -5 -11 -11 0 -14 -55 -69 -69 -69 -6
0 -11 -5 -11 -11 0 -6 -22 -33 -49 -59 -27 -26 -52 -57 -56 -69 -3 -12 -11
-21 -16 -21 -5 0 -9 -7 -9 -15 0 -8 -7 -15 -15 -15 -8 0 -15 -5 -15 -11 0 -13
-25 -39 -38 -39 -5 0 -13 -11 -16 -25 -4 -14 -11 -25 -16 -25 -6 0 -10 -7 -10
-15 0 -8 -4 -15 -10 -15 -5 0 -10 -7 -10 -15 0 -8 -7 -15 -15 -15 -9 0 -15 -9
-15 -25 0 -16 -6 -25 -15 -25 -8 0 -15 -7 -15 -15 0 -8 -4 -15 -9 -15 -5 0
-12 -11 -15 -25 -4 -14 -11 -25 -16 -25 -6 0 -10 -7 -10 -15 0 -8 -4 -15 -10
-15 -5 0 -12 -11 -16 -25 -3 -14 -10 -25 -14 -25 -4 0 -11 -11 -14 -25 -4 -14
-11 -25 -16 -25 -6 0 -10 -5 -10 -11 0 -6 -7 -17 -15 -25 -8 -9 -15 -24 -15
-35 0 -10 -4 -19 -9 -19 -5 0 -12 -11 -15 -25 -4 -14 -11 -25 -16 -25 -6 0
-10 -11 -10 -24 0 -13 -7 -26 -15 -30 -8 -3 -15 -17 -15 -31 0 -14 -4 -25 -10
-25 -5 0 -10 -9 -10 -20 0 -11 -7 -23 -15 -26 -8 -4 -15 -17 -15 -31 0 -13 -7
-31 -15 -39 -8 -9 -15 -26 -15 -40 0 -13 -4 -24 -10 -24 -5 0 -13 -18 -16 -40
-4 -22 -10 -40 -15 -40 -5 0 -9 -12 -9 -26 0 -14 -7 -32 -15 -40 -8 -9 -15
-29 -15 -45 0 -16 -4 -29 -9 -29 -5 0 -12 -22 -16 -50 -4 -27 -11 -50 -16 -50
-5 0 -9 -20 -9 -44 0 -26 -6 -51 -15 -60 -9 -9 -15 -34 -15 -65 0 -28 -4 -51
-9 -51 -5 0 -12 -34 -16 -75 -4 -41 -11 -75 -16 -75 -5 0 -9 -45 -9 -100 0
-56 -7 -124 -15 -157 -21 -79 -21 -377 0 -456 8 -33 15 -101 15 -157 0 -55 4
-100 9 -100 5 0 12 -34 16 -75 4 -41 11 -75 16 -75 5 0 9 -20 9 -44 0 -26 6
-51 15 -60 9 -9 15 -34 15 -65 0 -28 4 -51 9 -51 5 0 11 -18 15 -40 3 -22 11
-40 16 -40 6 0 10 -16 10 -36 0 -19 7 -42 15 -50 8 -9 15 -29 15 -45 0 -16 4
-29 10 -29 5 0 13 -18 16 -40 4 -22 10 -40 15 -40 5 0 9 -11 9 -25 0 -14 7
-28 15 -31 9 -4 15 -19 15 -39 0 -20 6 -35 15 -39 8 -3 15 -15 15 -26 0 -11 5
-20 10 -20 6 0 10 -9 10 -19 0 -11 7 -26 15 -35 8 -8 15 -23 15 -34 0 -11 7
-22 15 -26 8 -3 15 -15 15 -26 0 -11 3 -20 8 -20 4 0 16 -19 27 -43 11 -23 26
-48 32 -55 7 -7 13 -20 13 -28 0 -8 5 -14 10 -14 6 0 10 -7 10 -15 0 -8 4 -15
9 -15 5 0 13 -10 17 -22 3 -12 13 -28 20 -36 8 -7 14 -20 14 -28 0 -8 5 -14
10 -14 6 0 10 -7 10 -15 0 -8 7 -15 15 -15 8 0 15 -7 15 -15 0 -8 4 -15 10
-15 5 0 12 -11 16 -25 3 -14 10 -25 15 -25 5 0 9 -7 9 -15 0 -8 7 -15 15 -15
8 0 15 -7 15 -15 0 -8 4 -15 9 -15 5 0 13 -10 17 -22 8 -26 28 -48 43 -48 6 0
11 -7 11 -15 0 -8 7 -15 15 -15 8 0 15 -7 15 -15 0 -8 5 -15 10 -15 6 0 10 -5
10 -10 0 -13 10 -25 68 -85 23 -24 42 -48 42 -54 0 -6 5 -11 11 -11 14 0 39
-25 39 -39 0 -6 5 -11 11 -11 6 0 29 -18 50 -40 22 -22 46 -40 54 -40 8 0 15
-7 15 -15 0 -8 7 -15 15 -15 8 0 15 -4 15 -10 0 -5 7 -10 15 -10 8 0 15 -7 15
-15 0 -8 7 -15 15 -15 8 0 15 -7 15 -15 0 -8 5 -15 11 -15 6 0 17 -6 24 -12
33 -30 45 -38 55 -38 5 0 10 -7 10 -15 0 -8 7 -15 15 -15 8 0 15 -4 15 -9 0
-5 11 -12 25 -15 14 -4 25 -11 25 -16 0 -6 7 -10 15 -10 8 0 15 -7 15 -15 0
-9 9 -15 25 -15 14 0 25 -4 25 -10 0 -5 7 -10 15 -10 8 0 15 -7 15 -15 0 -9 9
-15 25 -15 16 0 25 -6 25 -15 0 -8 7 -15 15 -15 8 0 15 -4 15 -9 0 -5 11 -12
25 -15 14 -4 25 -11 25 -16 0 -6 11 -10 24 -10 13 0 26 -7 30 -15 3 -8 17 -15
31 -15 14 0 25 -4 25 -9 0 -5 11 -12 25 -15 14 -4 25 -11 25 -16 0 -6 5 -10
11 -10 6 0 17 -7 25 -15 9 -8 29 -15 45 -15 16 0 29 -4 29 -9 0 -5 11 -12 25
-15 14 -4 25 -11 25 -16 0 -6 12 -10 26 -10 14 0 32 -7 40 -15 9 -8 26 -15 40
-15 13 0 24 -4 24 -10 0 -5 9 -10 19 -10 11 0 26 -7 35 -15 8 -8 29 -15 46
-15 17 0 38 -7 46 -15 9 -8 29 -15 45 -15 16 0 29 -4 29 -10 0 -5 18 -10 39
-10 22 0 46 -7 55 -15 9 -9 33 -15 64 -15 30 0 52 -5 54 -12 2 -6 31 -13 66
-16 34 -2 62 -8 62 -12 0 -4 36 -11 80 -14 44 -4 80 -11 80 -15 0 -10 263 -24
430 -24 176 1 424 14 431 24 3 5 40 12 82 15 42 4 77 11 77 15 0 5 24 9 53 9
31 0 61 6 73 15 10 8 40 15 66 15 25 0 48 5 50 11 2 5 22 13 46 16 23 3 42 10
42 14 0 5 15 9 33 9 18 0 42 7 53 15 10 8 29 15 42 15 13 0 30 7 38 15 9 8 26
15 40 15 13 0 24 5 24 10 0 6 13 10 29 10 16 0 36 7 45 15 8 8 24 15 35 15 12
0 21 4 21 9 0 5 14 12 30 16 17 4 30 11 30 16 0 5 11 9 24 9 13 0 26 7 30 15
3 8 17 15 31 15 14 0 25 4 25 10 0 5 11 12 25 16 14 3 25 10 25 15 0 5 11 9
25 9 16 0 25 6 25 15 0 9 9 15 24 15 13 0 26 7 30 15 3 8 12 15 21 15 8 0 15
5 15 10 0 6 9 10 20 10 11 0 23 7 26 15 4 8 14 15 24 15 10 0 20 7 24 15 3 8
10 15 16 15 6 0 18 6 25 12 35 32 45 38 60 38 8 0 15 7 15 15 0 8 7 15 15 15
8 0 15 5 15 10 0 6 9 10 20 10 11 0 20 7 20 15 0 8 5 15 10 15 6 0 21 11 33
24 12 13 32 26 45 30 12 4 22 12 22 17 0 5 7 9 15 9 8 0 15 7 15 15 0 8 5 15
11 15 14 0 39 25 39 39 0 6 5 11 11 11 14 0 69 55 69 69 0 6 5 11 11 11 14 0
149 135 149 149 0 6 7 11 15 11 8 0 15 7 15 15 0 8 5 15 11 15 14 0 39 25 39
39 0 6 7 11 15 11 8 0 15 7 15 15 0 8 4 15 9 15 5 0 13 10 17 23 4 12 21 36
39 53 18 16 36 40 39 52 4 12 12 22 17 22 5 0 9 7 9 15 0 8 7 15 15 15 8 0 15
7 15 15 0 8 4 15 9 15 5 0 12 11 15 25 4 14 11 25 16 25 6 0 10 7 10 15 0 8 4
15 10 15 5 0 12 11 16 25 3 14 10 25 14 25 4 0 11 11 14 25 4 14 11 25 16 25
6 0 10 9 10 20 0 11 7 20 15 20 9 0 15 9 15 25 0 14 4 25 10 25 5 0 12 11 16
25 3 14 10 25 15 25 5 0 9 11 9 25 0 16 6 25 15 25 9 0 15 9 15 25 0 14 4 25
9 25 5 0 12 14 16 30 4 17 11 30 16 30 5 0 9 11 9 24 0 13 7 26 15 30 8 3 15
17 15 31 0 14 4 25 9 25 5 0 11 18 15 40 3 22 11 40 16 40 6 0 10 10 10 23 0
13 7 32 15 43 8 10 15 34 15 52 0 17 4 32 10 32 5 0 13 18 16 40 4 22 10 40
15 40 5 0 9 18 9 40 0 27 5 43 15 46 11 5 15 21 15 59 0 29 4 55 10 57 5 2 13
31 16 66 4 34 11 62 15 62 5 0 9 27 9 60 0 33 7 77 15 97 11 26 15 75 15 189
0 96 4 154 10 154 6 0 10 38 10 95 0 57 -4 95 -10 95 -6 0 -10 55 -10 144 0
105 -4 153 -15 179 -8 20 -15 64 -15 97 0 33 -4 60 -9 60 -4 0 -12 32 -15 70
-4 39 -11 70 -17 70 -5 0 -9 21 -9 46 0 27 -6 51 -15 60 -8 9 -15 33 -15 55 0
21 -4 39 -9 39 -5 0 -12 18 -16 40 -4 22 -11 40 -16 40 -5 0 -9 15 -9 34 0 18
-7 39 -15 46 -8 7 -15 23 -15 36 0 13 -4 24 -9 24 -5 0 -11 18 -15 40 -3 22
-11 40 -16 40 -6 0 -10 11 -10 25 0 14 -7 28 -15 31 -8 4 -15 17 -15 30 0 13
-4 24 -9 24 -5 0 -12 14 -16 30 -4 17 -11 30 -16 30 -5 0 -9 11 -9 25 0 14 -4
25 -10 25 -5 0 -12 11 -16 25 -3 14 -10 25 -14 25 -4 0 -11 11 -14 25 -4 14
-11 25 -16 25 -6 0 -10 11 -10 24 0 13 -7 26 -15 30 -8 3 -15 15 -15 27 0 12
-11 32 -25 45 -14 13 -25 32 -25 44 0 11 -7 20 -15 20 -8 0 -15 7 -15 15 0 8
-4 15 -10 15 -5 0 -12 11 -16 25 -3 14 -10 25 -15 25 -5 0 -9 7 -9 15 0 8 -7
15 -15 15 -9 0 -15 9 -15 25 0 16 -6 25 -15 25 -8 0 -15 6 -15 13 0 7 -11 21
-25 31 -14 10 -25 25 -25 33 0 8 -11 24 -25 37 -14 13 -25 28 -25 35 0 6 -7
11 -15 11 -8 0 -15 5 -15 11 0 13 -25 39 -38 39 -5 0 -13 11 -16 25 -4 14 -11
25 -16 25 -6 0 -10 7 -10 15 0 8 -7 15 -15 15 -8 0 -15 5 -15 11 0 14 -25 39
-39 39 -6 0 -11 7 -11 15 0 8 -7 15 -15 15 -8 0 -15 5 -15 11 0 14 -25 39 -39
39 -6 0 -11 7 -11 15 0 8 -7 15 -15 15 -8 0 -15 4 -15 10 0 5 -11 12 -25 16
-14 3 -25 11 -25 16 0 13 -26 38 -39 38 -6 0 -11 7 -11 15 0 8 -5 15 -11 15
-7 0 -22 11 -35 25 -13 14 -28 25 -33 25 -6 0 -27 17 -48 39 -22 21 -49 41
-61 45 -12 4 -22 12 -22 17 0 5 -7 9 -15 9 -8 0 -15 5 -15 10 0 6 -7 10 -15
10 -8 0 -15 7 -15 15 0 9 -9 15 -25 15 -16 0 -25 6 -25 15 0 8 -9 15 -20 15
-12 0 -31 11 -44 25 -13 14 -33 25 -45 25 -12 0 -21 6 -21 15 0 9 -9 15 -24
15 -13 0 -26 7 -30 15 -3 8 -12 15 -21 15 -8 0 -15 5 -15 10 0 6 -11 10 -25
10 -16 0 -25 6 -25 15 0 9 -9 15 -25 15 -14 0 -25 4 -25 9 0 5 -13 12 -30 16
-16 4 -30 11 -30 16 0 5 -9 9 -21 9 -11 0 -27 7 -35 15 -9 8 -29 15 -45 15
-16 0 -29 4 -29 9 0 5 -13 12 -30 16 -16 4 -30 11 -30 16 0 5 -11 9 -24 9 -14
0 -31 7 -40 15 -8 8 -31 15 -50 15 -20 0 -36 4 -36 10 0 5 -18 13 -40 16 -22
4 -40 10 -40 15 0 5 -13 9 -28 9 -16 0 -37 7 -48 15 -10 8 -40 15 -66 15 -27
0 -48 4 -48 9 0 5 -29 13 -65 16 -36 4 -65 11 -65 16 0 5 -23 9 -50 9 -28 0
-67 7 -87 15 -24 10 -71 15 -149 15 -69 0 -114 4 -114 10 0 6 -82 10 -225 10
-143 0 -225 -4 -225 -10z m450 -400 c0 -6 41 -10 103 -10 75 0 108 -4 123 -15
12 -9 42 -14 82 -15 34 0 62 -4 62 -9 0 -5 25 -13 55 -16 30 -4 55 -11 55 -16
0 -5 17 -9 38 -9 21 0 47 -7 58 -15 10 -8 34 -15 52 -15 17 0 32 -4 32 -10 0
-5 18 -13 40 -16 22 -4 40 -10 40 -15 0 -5 12 -9 26 -9 14 0 32 -7 40 -15 9
-8 29 -15 45 -15 16 0 29 -4 29 -10 0 -5 11 -12 25 -16 14 -3 25 -10 25 -15 0
-5 9 -9 19 -9 18 0 80 -28 91 -41 3 -4 15 -9 28 -13 12 -4 22 -12 22 -17 0 -5
11 -9 24 -9 13 0 26 -7 30 -15 3 -8 15 -15 26 -15 11 0 20 -4 20 -10 0 -5 7
-10 15 -10 9 0 18 -7 21 -15 4 -8 17 -15 30 -15 15 0 24 -6 24 -15 0 -9 9 -15
25 -15 16 0 25 -6 25 -15 0 -8 7 -15 15 -15 8 0 15 -4 15 -10 0 -5 7 -10 15
-10 8 0 15 -4 15 -10 0 -5 11 -12 25 -16 14 -3 25 -12 25 -20 0 -8 5 -14 10
-14 6 0 23 -11 38 -25 15 -14 30 -25 35 -25 4 0 18 -11 31 -25 13 -14 28 -25
35 -25 6 0 11 -7 11 -15 0 -8 5 -15 11 -15 14 0 39 -25 39 -39 0 -6 7 -11 15
-11 8 0 15 -7 15 -15 0 -8 5 -15 11 -15 14 0 119 -105 119 -119 0 -6 7 -11 15
-11 8 0 15 -7 15 -15 0 -8 5 -15 11 -15 14 0 39 -25 39 -39 0 -6 7 -11 15 -11
8 0 15 -5 15 -11 0 -7 11 -22 25 -35 14 -13 25 -29 25 -37 0 -8 11 -23 25 -33
14 -10 25 -24 25 -31 0 -7 7 -13 15 -13 9 0 15 -9 15 -25 0 -16 6 -25 15 -25
8 0 15 -7 15 -15 0 -8 4 -15 9 -15 5 0 12 -11 15 -25 4 -14 11 -25 16 -25 6 0
10 -7 10 -15 0 -8 7 -15 15 -15 9 0 15 -9 15 -25 0 -14 4 -25 9 -25 5 0 12
-11 15 -25 4 -14 11 -25 16 -25 6 0 10 -9 10 -20 0 -11 7 -20 15 -20 9 0 15
-9 15 -25 0 -14 4 -25 9 -25 5 0 12 -11 15 -25 4 -14 11 -25 16 -25 6 0 10
-11 10 -25 0 -14 7 -28 15 -31 8 -4 15 -17 15 -30 0 -13 4 -24 10 -24 5 0 12
-16 16 -35 3 -19 10 -35 15 -35 5 0 9 -13 9 -30 0 -20 5 -30 15 -30 11 0 15
-11 15 -40 0 -22 4 -40 10 -40 5 0 13 -18 16 -40 4 -22 10 -40 15 -40 5 0 9
-18 9 -40 0 -29 4 -40 15 -40 12 0 15 -13 15 -55 0 -30 4 -55 9 -55 5 0 13
-25 16 -55 4 -30 11 -55 15 -55 4 0 10 -35 12 -77 2 -48 8 -78 16 -81 9 -3 12
-43 12 -148 0 -89 4 -144 10 -144 6 0 10 -38 10 -95 0 -57 -4 -95 -10 -95 -6
0 -10 -54 -10 -143 0 -110 -3 -148 -15 -163 -9 -12 -14 -44 -15 -91 0 -40 -4
-73 -9 -73 -5 0 -12 -25 -16 -55 -3 -30 -11 -55 -16 -55 -5 0 -9 -25 -9 -55 0
-42 -3 -55 -15 -55 -11 0 -15 -11 -15 -40 0 -22 -4 -40 -9 -40 -5 0 -11 -18
-15 -40 -3 -22 -11 -40 -16 -40 -6 0 -10 -13 -10 -29 0 -16 -7 -36 -15 -45 -8
-8 -15 -24 -15 -35 0 -12 -4 -21 -9 -21 -5 0 -12 -13 -16 -30 -4 -16 -11 -30
-16 -30 -5 0 -9 -16 -9 -35 0 -24 -5 -35 -15 -35 -10 0 -15 -10 -15 -30 0 -16
-4 -30 -10 -30 -5 0 -12 -11 -16 -25 -3 -14 -10 -25 -15 -25 -5 0 -9 -5 -9
-11 0 -6 -7 -17 -15 -25 -8 -9 -15 -24 -15 -35 0 -10 -4 -19 -10 -19 -5 0 -12
-11 -16 -25 -3 -14 -10 -25 -14 -25 -4 0 -11 -11 -14 -25 -4 -14 -11 -25 -16
-25 -6 0 -10 -7 -10 -15 0 -8 -4 -15 -10 -15 -5 0 -12 -11 -16 -25 -3 -14 -10
-25 -15 -25 -5 0 -9 -7 -9 -15 0 -8 -7 -15 -15 -15 -8 0 -15 -5 -15 -10 0 -10
-8 -22 -37 -55 -7 -7 -13 -16 -13 -20 0 -3 -11 -16 -24 -28 -13 -12 -26 -32
-30 -44 -4 -13 -12 -23 -17 -23 -5 0 -9 -7 -9 -15 0 -8 -7 -15 -15 -15 -8 0
-15 -5 -15 -11 0 -14 -25 -39 -39 -39 -6 0 -11 -7 -11 -15 0 -8 -7 -15 -15
-15 -8 0 -15 -5 -15 -11 0 -14 -55 -69 -69 -69 -6 0 -11 -5 -11 -11 0 -14 -25
-39 -39 -39 -6 0 -11 -7 -11 -15 0 -8 -7 -15 -15 -15 -8 0 -15 -7 -15 -15 0
-8 -5 -15 -11 -15 -14 0 -39 -25 -39 -39 0 -6 -7 -11 -15 -11 -8 0 -15 -4 -15
-9 0 -5 -10 -13 -22 -16 -11 -4 -31 -18 -43 -31 -12 -13 -27 -24 -34 -24 -6 0
-11 -7 -11 -15 0 -8 -9 -15 -20 -15 -11 0 -20 -4 -20 -10 0 -5 -7 -10 -15 -10
-8 0 -15 -7 -15 -15 0 -8 -7 -15 -16 -15 -8 0 -22 -6 -29 -13 -34 -29 -45 -37
-55 -37 -6 0 -13 -7 -16 -15 -4 -8 -17 -15 -30 -15 -15 0 -24 -6 -24 -15 0 -9
-9 -15 -21 -15 -12 0 -32 -11 -45 -25 -13 -14 -32 -25 -44 -25 -11 0 -20 -4
-20 -10 0 -5 -11 -12 -25 -16 -14 -3 -25 -10 -25 -15 0 -5 -11 -9 -25 -9 -14
0 -28 -7 -31 -15 -4 -9 -19 -15 -39 -15 -20 0 -35 -6 -39 -15 -3 -8 -17 -15
-31 -15 -14 0 -25 -4 -25 -10 0 -5 -11 -10 -25 -10 -14 0 -28 -7 -31 -15 -4
-9 -19 -15 -39 -15 -20 0 -35 -6 -39 -15 -3 -9 -19 -15 -41 -15 -19 0 -35 -4
-35 -10 0 -5 -13 -10 -29 -10 -16 0 -36 -7 -45 -15 -9 -9 -33 -15 -61 -15 -28
0 -52 -6 -61 -15 -9 -9 -34 -15 -60 -15 -24 0 -44 -4 -44 -9 0 -4 -35 -11 -77
-15 -42 -3 -79 -10 -82 -15 -19 -29 -784 -28 -802 1 -3 5 -40 12 -82 15 -43 3
-77 10 -77 14 0 5 -23 9 -50 9 -36 0 -52 4 -56 15 -4 11 -21 15 -55 15 -27 0
-49 4 -49 10 0 5 -18 13 -40 16 -22 4 -40 10 -40 15 0 5 -18 9 -40 9 -29 0
-40 4 -40 15 0 11 -11 15 -36 15 -19 0 -42 7 -50 15 -9 8 -29 15 -45 15 -16 0
-29 4 -29 9 0 5 -11 12 -25 15 -14 4 -25 11 -25 16 0 6 -13 10 -30 10 -16 0
-30 4 -30 10 0 5 -11 12 -25 16 -14 3 -25 10 -25 15 0 5 -11 9 -25 9 -16 0
-25 6 -25 15 0 10 -10 15 -30 15 -20 0 -30 5 -30 15 0 8 -7 15 -15 15 -8 0
-15 5 -15 10 0 6 -11 10 -25 10 -16 0 -25 6 -25 15 0 9 -9 15 -25 15 -16 0
-25 6 -25 15 0 8 -7 15 -15 15 -8 0 -15 5 -15 10 0 6 -11 10 -25 10 -16 0 -25
6 -25 15 0 8 -7 15 -15 15 -8 0 -15 4 -15 10 0 5 -11 12 -25 16 -14 3 -25 10
-25 15 0 5 -7 9 -15 9 -8 0 -15 7 -15 15 0 8 -5 15 -10 15 -10 0 -22 8 -55 37
-7 7 -18 13 -24 13 -6 0 -11 7 -11 15 0 8 -7 15 -15 15 -8 0 -15 7 -15 15 0 8
-5 15 -11 15 -7 0 -26 16 -45 35 -18 19 -37 35 -43 35 -6 0 -11 7 -11 15 0 8
-7 15 -15 15 -8 0 -15 7 -15 15 0 8 -9 15 -20 15 -13 0 -22 9 -26 25 -3 14
-12 25 -20 25 -8 0 -14 5 -14 11 0 6 -16 25 -35 43 -19 19 -35 38 -35 45 0 6
-7 11 -15 11 -8 0 -15 7 -15 15 0 8 -7 15 -15 15 -8 0 -15 5 -15 10 0 10 -8
22 -37 55 -7 7 -13 18 -13 24 0 6 -7 11 -15 11 -8 0 -15 7 -15 15 0 8 -4 15
-9 15 -5 0 -12 11 -15 25 -4 14 -11 25 -16 25 -6 0 -10 7 -10 15 0 8 -7 15
-15 15 -8 0 -15 7 -15 15 0 8 -4 15 -10 15 -5 0 -10 11 -10 25 0 15 -6 25 -14
25 -8 0 -17 11 -20 25 -4 14 -11 25 -16 25 -6 0 -10 7 -10 15 0 8 -4 15 -9 15
-5 0 -12 11 -15 25 -4 14 -11 25 -16 25 -6 0 -10 11 -10 24 0 13 -7 26 -15 30
-8 3 -15 17 -15 31 0 14 -4 25 -9 25 -5 0 -12 11 -15 25 -4 14 -11 25 -16 25
-6 0 -10 11 -10 25 0 14 -7 28 -15 31 -8 4 -15 17 -15 30 0 13 -4 24 -9 24 -5
0 -11 18 -15 40 -3 22 -11 40 -16 40 -6 0 -10 10 -10 23 0 12 -7 31 -15 41 -8
11 -15 30 -15 43 0 13 -4 23 -9 23 -4 0 -11 19 -14 42 -3 24 -11 44 -16 46 -6
2 -11 26 -11 53 0 37 -4 49 -15 49 -12 0 -15 13 -15 55 0 30 -4 55 -9 55 -5 0
-11 28 -13 62 -3 35 -10 64 -16 66 -8 2 -12 35 -12 97 0 52 -7 120 -15 152
-21 78 -21 338 0 416 8 32 15 100 15 152 0 53 4 95 10 97 5 2 13 31 16 66 4
34 11 62 15 62 5 0 9 23 9 51 0 31 6 56 15 65 8 9 15 33 15 54 0 21 5 40 11
42 5 2 13 22 16 46 3 23 10 42 14 42 5 0 9 16 9 35 0 22 6 38 15 41 9 4 15 19
15 39 0 20 6 35 15 39 8 3 15 17 15 31 0 14 5 25 10 25 6 0 10 11 10 24 0 13
7 26 15 30 9 3 15 19 15 41 0 24 4 35 15 35 8 0 15 7 15 15 0 8 5 15 10 15 6
0 10 11 10 24 0 13 7 29 15 36 8 7 15 21 15 31 0 11 4 19 10 19 5 0 12 11 16
25 3 14 10 25 14 25 4 0 11 11 14 25 4 14 11 25 16 25 6 0 10 7 10 15 0 8 4
15 10 15 5 0 12 11 16 25 3 14 10 25 15 25 5 0 9 7 9 15 0 8 7 15 15 15 9 0
15 9 15 25 0 16 6 25 15 25 8 0 15 7 15 15 0 8 5 15 10 15 6 0 10 7 10 15 0 8
4 15 10 15 5 0 12 11 16 25 3 14 11 25 16 25 13 0 38 26 38 39 0 6 7 11 15 11
8 0 15 5 15 11 0 7 11 22 25 35 14 13 25 28 25 33 0 16 196 208 219 216 12 3
21 11 21 16 0 5 7 9 15 9 8 0 15 5 15 11 0 14 55 69 69 69 6 0 11 7 11 15 0 8
9 15 20 15 12 0 31 11 44 25 13 14 28 25 35 25 6 0 11 4 11 10 0 5 11 12 25
16 14 3 25 12 25 20 0 8 7 14 15 14 8 0 15 5 15 10 0 6 11 10 25 10 16 0 25 6
25 15 0 8 7 15 15 15 8 0 15 4 15 10 0 5 11 12 25 16 14 3 25 10 25 15 0 5 11
9 25 9 16 0 25 6 25 15 0 9 9 15 25 15 14 0 25 4 25 9 0 5 14 12 30 16 17 4
30 10 30 15 0 4 11 11 25 14 14 4 25 11 25 16 0 6 11 10 25 10 14 0 25 4 25 9
0 5 14 12 30 16 17 4 30 11 30 16 0 5 10 9 23 9 12 0 31 7 41 15 11 8 30 15
43 15 13 0 23 4 23 10 0 5 18 13 40 16 22 4 40 10 40 15 0 5 13 9 28 9 16 0
37 7 48 15 10 8 40 15 67 15 26 0 47 4 47 9 0 5 25 13 55 16 30 4 55 11 55 16
0 5 24 9 53 9 28 1 63 7 77 15 17 10 58 14 133 15 64 0 107 4 107 10 0 6 78
10 215 10 137 0 215 -4 215 -10z"/>
<path d="M4580 10661 c0 -5 -11 -12 -25 -15 -14 -4 -25 -11 -25 -16 0 -6 -5
-10 -11 -10 -21 0 -69 -58 -69 -84 0 -16 -6 -26 -15 -26 -13 0 -15 -23 -15
-145 0 -85 4 -145 10 -145 5 0 12 -17 16 -37 8 -40 46 -86 82 -97 12 -4 22
-12 22 -17 0 -5 36 -9 80 -9 44 0 80 4 80 9 0 5 11 12 25 15 14 4 25 11 25 16
0 6 6 10 14 10 8 0 17 11 20 25 4 14 11 25 16 25 6 0 10 74 10 195 l0 196 -25
23 c-14 13 -25 28 -25 35 0 6 -7 11 -15 11 -8 0 -15 4 -15 9 0 5 -13 12 -30
16 -16 4 -30 11 -30 16 0 5 -22 9 -50 9 -27 0 -50 -4 -50 -9z"/>
<path d="M6080 10021 c0 -5 -13 -12 -30 -16 -16 -4 -30 -11 -30 -16 0 -5 -7
-9 -15 -9 -8 0 -15 -7 -15 -15 0 -8 -5 -15 -11 -15 -6 0 -17 -6 -25 -14 -8 -8
-14 -19 -14 -25 0 -6 -7 -11 -15 -11 -8 0 -15 -7 -15 -15 0 -8 -5 -15 -11 -15
-6 0 -17 -6 -25 -14 -8 -8 -14 -19 -14 -25 0 -6 -7 -11 -15 -11 -8 0 -15 -7
-15 -15 0 -8 -5 -15 -11 -15 -6 0 -17 -6 -25 -14 -8 -8 -14 -19 -14 -25 0 -6
-7 -11 -15 -11 -8 0 -15 -7 -15 -15 0 -8 -5 -15 -11 -15 -14 0 -39 -25 -39
-39 0 -6 -7 -11 -15 -11 -8 0 -15 -7 -15 -15 0 -8 -5 -15 -11 -15 -6 0 -17 -6
-25 -14 -8 -8 -14 -19 -14 -25 0 -6 -7 -11 -15 -11 -8 0 -15 -7 -15 -15 0 -8
-5 -15 -11 -15 -6 0 -17 -6 -25 -14 -8 -8 -14 -19 -14 -25 0 -6 -7 -11 -15
-11 -8 0 -15 -7 -15 -15 0 -8 -5 -15 -11 -15 -6 0 -17 -6 -25 -14 -8 -8 -14
-19 -14 -25 0 -6 -7 -11 -15 -11 -8 0 -15 -7 -15 -15 0 -8 -5 -15 -11 -15 -14
0 -39 -25 -39 -39 0 -6 -7 -11 -15 -11 -8 0 -15 -7 -15 -15 0 -8 -5 -15 -11
-15 -6 0 -17 -6 -25 -14 -8 -8 -14 -19 -14 -25 0 -6 -7 -11 -15 -11 -8 0 -15
-7 -15 -15 0 -8 -5 -15 -11 -15 -6 0 -17 -6 -25 -14 -8 -8 -14 -19 -14 -25 0
-6 -7 -11 -15 -11 -8 0 -15 -7 -15 -15 0 -8 -5 -15 -11 -15 -6 0 -17 -6 -25
-14 -8 -8 -14 -19 -14 -25 0 -6 -7 -11 -15 -11 -8 0 -15 -7 -15 -15 0 -8 -5
-15 -11 -15 -14 0 -39 -25 -39 -39 0 -6 -7 -11 -15 -11 -8 0 -15 -7 -15 -15 0
-8 -5 -15 -11 -15 -6 0 -17 -6 -25 -14 -8 -8 -14 -19 -14 -25 0 -6 -7 -11 -15
-11 -8 0 -15 -7 -15 -15 0 -8 -6 -15 -14 -15 -8 0 -17 -6 -20 -12 -5 -10 -7
-10 -12 0 -3 6 -21 12 -41 12 -19 0 -41 7 -49 15 -10 10 -35 15 -70 15 -30 0
-54 5 -54 10 0 6 -28 10 -65 10 -37 0 -65 -4 -65 -10 0 -5 -24 -10 -52 -10
-31 -1 -61 -7 -72 -15 -11 -8 -30 -15 -43 -15 -13 0 -23 -4 -23 -10 0 -5 -6
-10 -14 -10 -8 0 -21 -6 -28 -12 -7 -7 -29 -22 -48 -32 -19 -11 -44 -30 -56
-43 -12 -13 -26 -23 -33 -23 -6 0 -11 -7 -11 -15 0 -8 -7 -15 -15 -15 -8 0
-15 -5 -15 -11 0 -6 -6 -17 -12 -24 -32 -35 -38 -45 -38 -60 0 -8 -4 -15 -10
-15 -5 0 -12 -11 -16 -25 -3 -14 -10 -25 -15 -25 -5 0 -9 -11 -9 -24 0 -14 -7
-31 -15 -40 -10 -9 -15 -34 -15 -70 0 -31 -4 -56 -10 -56 -6 0 -10 -32 -10
-75 0 -43 4 -75 10 -75 6 0 10 -25 10 -55 0 -30 4 -55 10 -55 5 0 13 -18 16
-40 4 -22 10 -40 15 -40 5 0 9 -7 9 -15 0 -8 -5 -15 -11 -15 -14 0 -39 -25
-39 -39 0 -6 -7 -11 -15 -11 -8 0 -15 -7 -15 -15 0 -8 -5 -15 -11 -15 -14 0
-39 -25 -39 -39 0 -6 -7 -11 -15 -11 -8 0 -15 -7 -15 -15 0 -8 -5 -15 -11 -15
-14 0 -39 -25 -39 -39 0 -6 -7 -11 -15 -11 -8 0 -15 -7 -15 -15 0 -8 -5 -15
-11 -15 -6 0 -17 -6 -25 -14 -8 -8 -14 -19 -14 -25 0 -6 -7 -11 -15 -11 -8 0
-15 -7 -15 -15 0 -8 -5 -15 -11 -15 -6 0 -17 -6 -25 -14 -8 -8 -14 -19 -14
-25 0 -6 -7 -11 -15 -11 -8 0 -15 -7 -15 -15 0 -8 -5 -15 -11 -15 -13 0 -39
-25 -39 -38 0 -6 -7 -12 -15 -16 -8 -3 -15 -17 -15 -31 0 -14 -4 -25 -10 -25
-5 0 -10 -22 -10 -50 0 -27 4 -50 9 -50 5 0 12 -13 16 -28 3 -15 15 -34 25
-42 11 -8 20 -20 20 -27 0 -7 7 -13 16 -13 8 0 22 -7 30 -15 11 -11 38 -15 95
-15 64 0 79 3 79 15 0 9 9 15 25 15 16 0 25 6 25 15 0 8 5 15 11 15 14 0 69
55 69 69 0 6 5 11 11 11 14 0 69 55 69 69 0 6 5 11 11 11 14 0 69 55 69 69 0
6 5 11 11 11 14 0 69 55 69 69 0 6 5 11 11 11 14 0 69 55 69 69 0 6 7 11 15
11 8 0 15 5 15 10 0 6 11 10 25 10 14 0 25 -4 25 -10 0 -5 14 -10 30 -10 20 0
30 -5 30 -15 0 -22 334 -22 356 0 9 8 26 15 40 15 13 0 24 5 24 10 0 6 11 10
25 10 14 0 28 7 31 15 4 8 17 15 30 15 15 0 24 6 24 15 0 8 5 15 11 15 14 0
149 135 149 149 0 6 7 11 15 11 9 0 15 9 15 25 0 14 4 25 9 25 5 0 12 11 15
25 4 14 11 25 16 25 6 0 10 13 10 28 0 16 7 37 15 48 11 15 14 53 14 169 0
116 -3 154 -14 169 -8 11 -15 32 -15 48 0 15 -4 28 -9 28 -5 0 -12 7 -15 16
-4 11 7 29 34 54 22 20 40 42 40 48 0 7 5 12 11 12 14 0 69 55 69 69 0 6 5 11
11 11 14 0 69 55 69 69 0 6 5 11 11 11 14 0 69 55 69 69 0 6 5 11 11 11 14 0
69 55 69 69 0 6 7 11 15 11 8 0 15 7 15 15 0 8 5 15 11 15 14 0 39 25 39 39 0
6 7 11 15 11 8 0 15 7 15 15 0 8 5 15 11 15 14 0 39 25 39 39 0 6 7 11 15 11
8 0 15 7 15 15 0 8 5 15 11 15 14 0 39 25 39 39 0 6 7 11 15 11 8 0 15 7 15
15 0 8 5 15 11 15 14 0 39 25 39 39 0 6 7 11 15 11 8 0 15 7 15 15 0 8 5 15
10 15 13 0 70 57 70 70 0 6 5 10 10 10 13 0 70 57 70 70 0 6 5 10 10 10 13 0
70 57 70 70 0 6 5 10 10 10 13 0 70 57 70 70 0 6 7 10 15 10 8 0 15 9 15 19 0
11 6 21 12 23 8 3 14 33 16 85 3 63 1 83 -12 96 -9 8 -16 20 -16 26 0 6 -7 11
-15 11 -8 0 -15 5 -15 11 0 16 -25 37 -54 45 -14 3 -26 10 -26 15 0 5 -22 9
-50 9 -27 0 -50 -4 -50 -9z m-1420 -1471 c0 -5 18 -10 40 -10 29 0 40 -4 40
-15 0 -8 5 -15 11 -15 11 0 69 -54 69 -65 0 -4 7 -13 15 -21 11 -11 15 -38 15
-99 0 -61 -4 -88 -15 -99 -8 -8 -15 -17 -15 -21 0 -9 -56 -65 -65 -65 -4 0
-13 -7 -21 -15 -12 -11 -39 -15 -110 -15 -77 0 -94 3 -94 15 0 8 -7 15 -15 15
-8 0 -15 4 -15 9 0 5 -11 12 -25 15 -16 4 -25 13 -25 27 0 11 -7 22 -15 25 -9
4 -15 19 -15 40 0 19 -4 34 -10 34 -5 0 -10 18 -10 40 0 22 5 40 10 40 6 0 10
14 10 30 0 17 4 30 9 30 5 0 13 9 16 21 9 27 41 59 59 59 8 0 16 7 20 15 3 8
17 15 31 15 14 0 25 5 25 10 0 6 18 10 40 10 22 0 40 -4 40 -10z"/>
<path d="M2460 8520 c-8 -5 -26 -10 -38 -10 -29 0 -112 -82 -112 -110 0 -11
-4 -20 -10 -20 -5 0 -10 -25 -10 -55 0 -30 5 -55 10 -55 6 0 10 -11 10 -25 0
-16 6 -25 15 -25 8 0 15 -5 15 -11 0 -6 14 -25 32 -42 l31 -32 189 0 c128 0
191 4 196 11 4 6 17 14 30 18 12 4 22 12 22 17 0 5 7 9 15 9 9 0 15 9 15 25 0
16 6 25 15 25 12 0 15 16 15 85 0 47 -4 85 -9 85 -5 0 -13 10 -17 22 -8 26
-28 48 -43 48 -6 0 -11 7 -11 15 0 11 -11 15 -40 15 -22 0 -40 5 -40 10 0 13
-260 13 -280 0z"/>
<path d="M6520 8520 c-8 -5 -25 -10 -37 -10 -13 0 -43 -20 -70 -46 l-48 -47 1
-91 c1 -91 2 -92 36 -129 20 -20 42 -37 51 -37 8 0 17 -6 20 -12 3 -10 49 -13
187 -13 138 0 184 3 188 13 2 6 15 12 28 12 15 0 24 6 24 15 0 8 7 15 15 15 8
0 15 6 15 14 0 8 6 16 13 19 8 2 12 32 12 102 0 70 -4 100 -12 103 -7 2 -13
10 -13 18 0 8 -5 14 -11 14 -7 0 -21 11 -33 23 -12 13 -35 28 -52 32 -45 12
-297 17 -314 5z"/>
<path d="M4530 6575 c0 -8 -5 -15 -11 -15 -22 0 -66 -56 -73 -93 -4 -20 -11
-37 -16 -37 -6 0 -10 -54 -10 -131 0 -103 3 -134 15 -145 8 -9 15 -27 15 -40
0 -26 48 -84 69 -84 6 0 11 -7 11 -15 0 -11 11 -15 39 -15 22 0 42 -6 45 -12
5 -10 7 -10 12 0 3 7 24 12 49 12 25 0 50 6 59 15 8 8 19 15 25 15 6 0 11 7
11 15 0 8 4 15 10 15 5 0 12 11 16 25 3 14 10 25 15 25 5 0 9 85 9 190 0 111
-4 190 -9 190 -5 0 -13 10 -17 22 -9 28 -24 43 -52 52 -12 4 -22 12 -22 17 0
5 -43 9 -95 9 -78 0 -95 -3 -95 -15z"/>
<path d="M8450 8950 c0 -5 -13 -10 -29 -10 -16 0 -36 -7 -45 -15 -8 -8 -19
-15 -25 -15 -6 0 -11 -5 -11 -11 0 -7 -11 -22 -25 -35 -23 -21 -25 -30 -25
-109 0 -50 4 -85 10 -85 6 0 10 -6 10 -13 0 -20 43 -67 62 -67 9 0 18 -7 22
-15 5 -13 93 -15 711 -15 l705 0 0 -65 c0 -51 -3 -65 -15 -65 -11 0 -15 -11
-15 -40 0 -22 -4 -40 -9 -40 -5 0 -11 -23 -13 -52 -3 -29 -11 -54 -17 -56 -6
-2 -11 -24 -11 -49 0 -26 -6 -51 -15 -59 -9 -9 -15 -34 -15 -60 0 -24 -4 -44
-9 -44 -5 0 -11 -18 -15 -40 -3 -22 -11 -40 -16 -40 -6 0 -10 -23 -10 -51 0
-31 -6 -56 -15 -65 -8 -9 -15 -33 -15 -55 0 -21 -4 -39 -9 -39 -5 0 -12 -25
-16 -55 -3 -30 -11 -55 -16 -55 -5 0 -9 -16 -9 -36 0 -19 -7 -42 -15 -50 -9
-9 -15 -34 -15 -60 0 -24 -4 -44 -9 -44 -4 0 -11 -21 -14 -47 -3 -26 -10 -49
-16 -51 -6 -2 -11 -22 -11 -44 0 -22 -7 -46 -15 -54 -8 -9 -15 -33 -15 -55 0
-21 -4 -39 -9 -39 -5 0 -11 -23 -13 -52 -3 -29 -11 -54 -17 -56 -6 -2 -11 -25
-11 -52 0 -33 -5 -50 -15 -54 -10 -3 -15 -19 -15 -46 0 -22 -4 -40 -9 -40 -4
0 -11 -21 -14 -47 -3 -26 -10 -49 -16 -51 -6 -2 -11 -25 -11 -52 0 -33 -5 -50
-15 -54 -11 -4 -15 -20 -15 -56 0 -27 -4 -50 -9 -50 -4 0 -11 -19 -14 -42 -3
-24 -11 -44 -16 -46 -6 -2 -11 -24 -11 -49 0 -26 -6 -51 -15 -59 -9 -9 -15
-34 -15 -60 0 -24 -4 -44 -9 -44 -5 0 -12 -22 -16 -50 -4 -27 -11 -50 -16 -50
-5 0 -9 -17 -9 -37 0 -21 -7 -47 -15 -57 -8 -11 -15 -37 -15 -58 0 -21 -4 -38
-10 -38 -5 0 -10 -18 -10 -39 0 -22 -7 -46 -15 -55 -8 -8 -15 -31 -15 -51 0
-20 -7 -43 -15 -51 -9 -9 -15 -34 -15 -60 0 -24 -4 -44 -9 -44 -4 0 -11 -21
-14 -47 -3 -26 -10 -49 -16 -51 -6 -2 -11 -23 -11 -47 0 -26 -6 -47 -15 -55
-9 -7 -15 -29 -15 -51 0 -22 -4 -39 -9 -39 -5 0 -11 -23 -13 -52 -3 -29 -11
-54 -17 -56 -6 -2 -11 -25 -11 -52 0 -33 -5 -50 -15 -54 -10 -4 -15 -20 -15
-51 0 -25 -4 -45 -9 -45 -4 0 -11 -19 -14 -42 -3 -24 -11 -44 -16 -46 -6 -2
-11 -25 -11 -52 0 -27 -5 -50 -11 -52 -6 -2 -14 -27 -17 -56 -2 -29 -8 -52
-12 -52 -4 0 -10 -22 -14 -50 -4 -27 -11 -50 -16 -50 -6 0 -10 -18 -10 -41 0
-23 -7 -47 -15 -55 -8 -9 -15 -33 -15 -55 0 -21 -4 -39 -9 -39 -5 0 -11 -23
-13 -52 -3 -29 -11 -54 -17 -56 -6 -2 -11 -20 -11 -40 0 -20 -7 -46 -15 -56
-8 -11 -15 -37 -15 -58 0 -21 -4 -38 -9 -38 -4 0 -11 -21 -14 -47 -3 -26 -10
-49 -16 -51 -6 -2 -11 -23 -11 -47 0 -25 -6 -50 -15 -59 -8 -8 -15 -31 -15
-50 0 -20 -4 -36 -9 -36 -5 0 -11 -23 -13 -52 -3 -29 -11 -54 -17 -56 -6 -2
-11 -25 -11 -52 0 -33 -5 -50 -15 -54 -11 -4 -15 -20 -15 -56 0 -27 -4 -50
-10 -50 -5 0 -13 -18 -16 -40 -4 -22 -10 -40 -15 -40 -5 0 -9 -18 -9 -40 l0
-40 -1520 0 -1520 0 0 60 c0 33 -7 77 -15 97 -8 19 -15 57 -15 84 0 27 -4 49
-10 49 -5 0 -13 18 -16 40 -4 22 -10 40 -15 40 -5 0 -9 11 -9 25 0 16 -6 25
-15 25 -10 0 -15 10 -15 30 0 20 -5 30 -15 30 -8 0 -15 7 -15 15 0 8 -4 15
-10 15 -5 0 -10 6 -10 13 0 7 -18 32 -40 55 -22 22 -40 46 -40 52 0 5 -5 10
-11 10 -7 0 -22 11 -35 25 -13 14 -32 25 -44 25 -11 0 -20 7 -20 15 0 8 -7 15
-15 15 -8 0 -15 4 -15 10 0 5 -11 12 -25 16 -14 3 -25 10 -25 15 0 5 -11 9
-24 9 -13 0 -26 7 -30 15 -3 9 -18 15 -40 15 -19 0 -36 5 -38 11 -2 5 -22 13
-46 16 -23 3 -42 10 -42 14 0 5 -94 9 -210 9 -115 0 -210 -4 -210 -9 0 -5 -23
-11 -52 -13 -29 -3 -54 -11 -56 -17 -2 -6 -19 -11 -39 -11 -19 0 -41 -7 -49
-15 -9 -8 -29 -15 -45 -15 -16 0 -29 -4 -29 -10 0 -5 -11 -12 -25 -16 -14 -3
-25 -10 -25 -15 0 -5 -11 -9 -24 -9 -13 0 -26 -7 -30 -15 -3 -8 -15 -15 -27
-15 -12 0 -32 -11 -45 -25 -13 -14 -32 -25 -44 -25 -11 0 -20 -7 -20 -15 0 -8
-5 -15 -11 -15 -6 0 -17 -6 -24 -12 -30 -27 -44 -38 -50 -38 -3 0 -23 -18 -45
-40 -22 -22 -44 -40 -50 -40 -5 0 -10 -5 -10 -10 0 -6 -22 -33 -50 -60 -27
-27 -50 -54 -50 -60 0 -5 -5 -10 -11 -10 -15 0 -35 -22 -43 -48 -4 -12 -12
-22 -17 -22 -5 0 -9 -7 -9 -15 0 -8 -4 -15 -10 -15 -5 0 -12 -11 -16 -25 -3
-14 -10 -25 -15 -25 -5 0 -9 -7 -9 -15 0 -8 -7 -15 -15 -15 -10 0 -15 -10 -15
-30 0 -16 -4 -30 -10 -30 -5 0 -12 -11 -16 -25 -3 -14 -10 -25 -14 -25 -4 0
-11 -11 -14 -25 l-6 -25 -435 0 -435 0 0 35 c0 19 5 35 10 35 6 0 10 18 10 41
0 23 7 47 15 55 8 9 15 33 15 54 0 21 5 40 11 42 6 2 14 27 17 56 2 29 8 52
13 52 5 0 9 18 9 40 0 27 5 43 15 46 10 4 15 21 15 54 0 27 5 50 11 52 6 2 13
25 16 51 3 26 10 47 14 47 5 0 9 20 9 44 0 26 6 51 15 60 8 8 15 31 15 51 0
20 7 43 15 51 8 9 15 33 15 55 0 21 5 39 10 39 6 0 10 18 10 39 0 22 7 46 15
55 9 9 15 33 15 64 0 28 5 52 11 54 5 2 13 22 16 46 3 23 10 42 14 42 5 0 9
18 9 39 0 22 7 46 15 55 9 9 15 33 15 60 0 25 5 46 10 46 6 0 10 25 10 55 0
30 -4 55 -10 55 -5 0 -10 14 -10 30 0 17 -5 30 -11 30 -14 0 -39 25 -39 39 0
6 -6 11 -14 11 -8 0 -16 6 -18 13 -6 17 -180 17 -185 0 -3 -7 -16 -13 -29 -13
-15 0 -24 -6 -24 -15 0 -8 -4 -15 -10 -15 -5 0 -12 -11 -16 -25 -3 -14 -10
-25 -15 -25 -5 0 -9 -13 -9 -29 0 -16 -7 -36 -15 -45 -9 -8 -15 -33 -15 -58 0
-24 -7 -52 -15 -62 -8 -11 -15 -37 -15 -58 0 -21 -4 -38 -9 -38 -4 0 -11 -19
-14 -42 -3 -24 -11 -44 -16 -46 -6 -2 -11 -25 -11 -52 0 -27 -5 -50 -11 -52
-6 -2 -14 -27 -17 -56 -2 -29 -8 -52 -12 -52 -4 0 -10 -21 -13 -47 -3 -26 -10
-49 -16 -51 -6 -2 -11 -22 -11 -44 0 -22 -7 -46 -15 -54 -8 -9 -15 -33 -15
-55 0 -21 -4 -39 -9 -39 -5 0 -11 -23 -13 -52 -3 -29 -11 -54 -17 -56 -6 -2
-11 -20 -11 -41 0 -20 -7 -46 -15 -57 -8 -10 -15 -36 -15 -56 0 -21 -4 -38 -9
-38 -4 0 -11 -21 -14 -47 -3 -26 -10 -49 -16 -51 -6 -2 -11 -26 -11 -53 0 -35
-4 -51 -15 -55 -11 -4 -15 -21 -15 -55 0 -27 -4 -49 -9 -49 -5 0 -13 -30 -17
-67 -3 -38 -12 -71 -18 -75 -8 -6 -8 -10 1 -16 6 -4 15 -35 19 -70 3 -34 11
-62 15 -62 5 0 9 -9 9 -19 0 -11 7 -26 15 -35 8 -8 15 -19 15 -25 0 -6 7 -11
15 -11 8 0 15 -5 15 -11 0 -14 25 -39 39 -39 6 0 11 -7 11 -15 0 -9 9 -15 24
-15 13 0 26 -5 28 -11 2 -5 22 -13 46 -16 23 -3 42 -10 42 -14 0 -5 201 -9
448 -9 246 0 452 -4 459 -8 6 -4 14 -51 18 -109 4 -57 11 -103 16 -103 5 0 9
-18 9 -39 0 -22 7 -46 15 -55 8 -8 15 -26 15 -40 0 -14 4 -26 10 -26 5 0 12
-11 16 -25 3 -14 10 -25 15 -25 5 0 9 -11 9 -25 0 -16 6 -25 15 -25 8 0 15 -7
15 -15 0 -8 4 -15 9 -15 5 0 13 -9 16 -21 8 -23 121 -139 136 -139 5 0 20 -11
32 -24 12 -13 32 -26 45 -30 12 -4 22 -12 22 -17 0 -5 9 -9 20 -9 11 0 20 -4
20 -9 0 -5 16 -12 35 -15 19 -4 35 -11 35 -16 0 -6 13 -10 28 -10 16 0 37 -7
48 -15 11 -8 42 -14 76 -15 31 0 58 -5 60 -11 5 -15 261 -15 266 0 2 6 30 11
69 11 44 0 69 5 79 15 9 8 33 15 55 15 21 0 39 4 39 9 0 5 14 12 30 16 17 4
30 11 30 16 0 5 10 9 23 9 13 0 32 7 43 15 10 8 29 15 42 15 12 0 22 4 22 10
0 5 11 12 25 16 14 3 25 10 25 15 0 5 7 9 15 9 8 0 15 4 15 10 0 5 11 12 25
16 14 3 25 10 25 15 0 5 7 9 15 9 8 0 15 7 15 15 0 9 9 15 25 15 16 0 25 6 25
15 0 8 5 15 11 15 7 0 22 11 35 25 13 14 26 25 29 25 10 0 35 28 35 39 0 6 7
11 15 11 8 0 15 7 15 15 0 8 5 15 11 15 14 0 39 25 39 39 0 6 7 11 15 11 8 0
15 5 15 11 0 7 11 22 25 35 14 13 25 28 25 34 0 5 4 10 9 10 5 0 13 10 17 23
4 12 17 32 30 44 13 12 24 29 24 38 0 9 7 18 15 21 8 4 15 17 15 30 0 13 4 24
9 24 5 0 12 11 15 25 4 14 11 25 16 25 6 0 10 11 10 24 0 13 7 27 16 30 9 3
1034 6 2278 6 l2263 0 6 -77 c3 -43 11 -79 16 -81 6 -2 11 -28 11 -58 0 -30 4
-54 10 -54 5 0 13 -18 16 -40 4 -22 10 -40 15 -40 5 0 9 -11 9 -25 0 -14 7
-28 15 -31 8 -4 15 -17 15 -30 0 -13 4 -24 9 -24 5 0 13 -10 17 -22 4 -13 29
-44 55 -70 27 -27 49 -52 49 -58 0 -5 5 -10 11 -10 6 0 25 -15 42 -34 18 -18
42 -36 55 -40 12 -4 22 -12 22 -17 0 -5 6 -9 14 -9 8 0 16 -7 20 -15 3 -8 17
-15 31 -15 14 0 25 -4 25 -10 0 -5 11 -12 25 -16 14 -3 25 -10 25 -15 0 -5 16
-9 36 -9 19 0 42 -7 50 -15 10 -10 35 -15 75 -15 33 0 59 -4 59 -10 0 -6 50
-10 130 -10 80 0 130 4 130 10 0 6 30 10 69 10 49 0 74 5 85 15 8 8 31 15 50
15 20 0 36 4 36 9 0 5 18 11 40 15 22 3 40 11 40 16 0 6 9 10 19 10 18 0 80
28 91 41 3 4 15 9 28 13 12 4 22 12 22 17 0 5 9 9 20 9 12 0 31 11 43 24 12
13 32 26 45 30 12 4 22 12 22 17 0 5 7 9 15 9 8 0 15 7 15 15 0 8 7 15 15 15
8 0 15 4 15 10 0 5 11 12 25 16 14 3 25 10 25 15 0 5 7 9 15 9 8 0 15 5 15 11
0 14 55 69 69 69 6 0 11 5 11 11 0 7 11 22 25 35 14 13 25 27 25 32 0 6 7 12
15 16 8 3 15 12 15 21 0 8 5 15 10 15 6 0 10 7 10 15 0 8 7 15 15 15 9 0 15 9
15 25 0 16 6 25 15 25 8 0 15 7 15 15 0 8 4 15 9 15 5 0 12 11 15 25 4 14 11
25 16 25 6 0 10 11 10 24 0 13 7 26 15 30 8 3 15 17 15 31 0 14 5 25 10 25 6
0 10 7 10 15 0 12 16 15 85 15 47 0 85 4 85 9 0 4 27 11 60 15 33 4 60 11 60
16 0 6 13 10 29 10 16 0 31 6 35 15 3 8 17 15 31 15 14 0 25 4 25 10 0 5 11
12 25 16 14 3 25 10 25 15 0 5 11 9 25 9 16 0 25 6 25 15 0 8 5 15 11 15 14 0
69 55 69 69 0 6 5 11 11 11 14 0 69 55 69 69 0 6 7 11 15 11 8 0 15 7 15 15 0
8 5 15 10 15 6 0 10 9 10 19 0 11 5 23 10 26 7 4 10 302 10 861 l0 854 -140 0
c-116 0 -142 -3 -146 -15 -4 -8 -14 -15 -23 -15 -19 0 -46 -28 -56 -59 -3 -12
-11 -21 -16 -21 -5 0 -9 -40 -9 -89 0 -82 2 -89 25 -107 14 -10 25 -24 25 -31
0 -7 7 -13 15 -13 8 0 15 -7 15 -15 0 -11 11 -15 40 -15 22 0 40 -4 40 -10 0
-6 38 -10 95 -10 l95 0 0 -29 c0 -16 -7 -36 -15 -45 -8 -8 -15 -32 -15 -54 0
-22 -5 -42 -11 -44 -6 -2 -13 -25 -16 -51 -3 -26 -9 -47 -13 -47 -4 0 -10 -23
-12 -52 -3 -29 -11 -54 -17 -56 -6 -2 -11 -25 -11 -52 0 -27 -5 -50 -11 -52
-5 -2 -13 -22 -16 -46 -3 -23 -10 -42 -14 -42 -5 0 -9 -18 -9 -39 0 -22 -7
-46 -15 -55 -9 -8 -15 -33 -15 -59 0 -25 -5 -47 -11 -49 -5 -2 -13 -22 -16
-46 -3 -23 -10 -42 -14 -42 -5 0 -9 -23 -9 -50 0 -36 -4 -52 -15 -56 -10 -4
-15 -20 -15 -45 0 -21 -4 -39 -10 -39 -5 0 -12 -11 -16 -25 -3 -14 -10 -25
-15 -25 -5 0 -9 -11 -9 -25 0 -16 -6 -25 -15 -25 -8 0 -15 -7 -15 -15 0 -8 -7
-15 -15 -15 -8 0 -15 -5 -15 -11 0 -14 -25 -39 -39 -39 -6 0 -11 -7 -11 -15 0
-9 -9 -15 -25 -15 -14 0 -25 -4 -25 -10 0 -5 -18 -13 -40 -16 -22 -4 -40 -10
-40 -15 0 -5 -7 -9 -15 -9 -8 0 -15 7 -15 15 0 8 -4 15 -9 15 -5 0 -12 47 -16
105 -4 58 -11 105 -16 105 -5 0 -9 16 -9 36 0 19 -7 42 -15 50 -8 9 -15 29
-15 45 0 19 -5 29 -15 29 -9 0 -15 9 -15 25 0 14 -4 25 -10 25 -5 0 -10 7 -10
15 0 8 -7 15 -15 15 -8 0 -15 9 -15 20 0 12 -11 31 -25 44 -14 13 -25 28 -25
35 0 6 -7 11 -15 11 -8 0 -15 5 -15 11 0 11 -25 39 -35 39 -3 0 -16 11 -29 25
-13 14 -28 25 -35 25 -6 0 -11 7 -11 15 0 9 -9 15 -25 15 -14 0 -25 4 -25 10
0 5 -11 12 -25 16 -14 3 -25 10 -25 14 0 4 -11 11 -25 14 -14 4 -25 11 -25 16
0 6 -13 10 -30 10 -16 0 -30 4 -30 9 0 5 -25 13 -55 16 -30 4 -55 11 -55 16 0
5 -94 9 -210 9 -115 0 -210 -4 -210 -9 0 -5 -25 -12 -55 -16 -30 -3 -55 -11
-55 -16 0 -5 -18 -9 -40 -9 -29 0 -40 -4 -40 -15 0 -10 -10 -15 -30 -15 -16 0
-30 -4 -30 -9 0 -5 -15 -12 -34 -15 -19 -4 -36 -10 -38 -14 -2 -4 -21 -16 -43
-27 -22 -11 -46 -26 -53 -32 -7 -7 -20 -13 -28 -13 -8 0 -14 -4 -14 -9 0 -5
-11 -12 -25 -15 -14 -4 -25 -11 -25 -16 0 -6 -5 -10 -11 -10 -6 0 -24 -12 -39
-27 -40 -38 -58 -53 -64 -53 -13 0 -174 -169 -180 -188 -4 -12 -12 -22 -17
-22 -5 0 -9 -7 -9 -15 0 -8 -7 -15 -15 -15 -8 0 -15 -7 -15 -15 0 -8 -4 -15
-9 -15 -5 0 -12 -11 -15 -25 -4 -14 -11 -25 -16 -25 -6 0 -10 -7 -10 -15 0 -8
-4 -15 -10 -15 -5 0 -12 -11 -16 -25 -3 -14 -10 -25 -15 -25 -5 0 -9 -11 -9
-25 0 -16 -6 -25 -15 -25 -9 0 -15 -10 -15 -26 0 -56 17 -54 -565 -54 l-537 0
7 53 c4 28 11 54 16 55 5 2 9 25 9 52 0 33 5 50 15 54 11 4 15 20 15 55 0 27
5 51 11 53 6 2 13 25 16 51 3 26 10 47 14 47 5 0 9 17 9 38 0 20 7 46 15 56 8
11 15 37 15 57 0 21 5 39 11 41 6 2 14 27 17 56 2 29 8 52 13 52 5 0 9 18 9
39 0 22 7 46 15 55 8 8 15 32 15 54 0 22 5 42 11 44 6 2 13 25 16 51 3 26 9
47 13 47 4 0 10 23 12 52 3 29 11 54 17 56 6 2 11 25 11 53 0 27 4 49 10 49 5
0 12 17 16 38 4 20 12 40 18 44 6 4 557 8 1224 8 801 0 1212 3 1212 10 0 6 18
10 40 10 29 0 40 4 40 15 0 8 7 15 15 15 8 0 15 5 15 11 0 14 25 39 39 39 7 0
11 34 11 95 0 52 -4 95 -9 95 -5 0 -12 11 -15 25 -4 14 -11 25 -16 25 -6 0
-10 7 -10 15 0 9 -9 15 -24 15 -13 0 -26 7 -30 15 -5 13 -146 15 -1191 15
l-1185 0 0 49 c0 28 5 51 11 53 6 2 14 27 17 56 2 29 8 52 13 52 5 0 9 18 9
40 0 29 4 40 15 40 11 0 15 13 15 54 0 31 5 56 11 58 6 2 13 25 16 51 3 26 9
47 13 47 4 0 10 23 12 52 3 29 11 54 17 56 6 2 11 21 11 42 0 21 5 40 11 42 6
2 14 27 17 56 2 29 8 52 13 52 5 0 9 18 9 39 0 22 7 46 15 55 9 9 15 33 15 61
0 28 6 52 15 61 8 9 15 29 15 45 0 16 4 29 9 29 5 0 11 23 13 52 3 29 11 54
17 56 6 2 11 25 11 52 0 27 5 50 11 52 5 2 13 22 16 46 3 23 10 42 14 42 5 0
9 23 9 50 0 38 4 50 15 50 11 0 15 12 15 51 0 31 6 56 15 65 8 9 15 33 15 55
0 21 5 39 10 39 6 0 10 18 10 40 0 27 5 43 15 46 10 4 15 21 15 54 0 27 5 50
11 52 6 2 13 25 16 51 3 26 10 47 14 47 5 0 9 20 9 44 0 26 6 51 15 60 8 8 15
31 15 51 0 20 7 43 15 51 8 9 15 33 15 55 0 21 4 39 9 39 5 0 11 23 13 52 3
29 11 54 17 56 6 2 11 21 11 43 0 21 4 39 9 39 5 0 13 25 16 55 4 30 11 55 16
55 5 0 9 18 9 39 0 22 7 46 15 55 9 8 15 33 15 59 0 25 5 47 11 49 5 2 13 22
16 46 3 23 10 42 14 42 5 0 9 23 9 50 0 36 4 52 15 56 8 4 15 15 15 25 0 19
20 19 843 16 463 -2 859 -7 880 -12 30 -6 37 -12 37 -30 0 -13 7 -25 15 -29
13 -4 15 -35 15 -191 l0 -185 -455 0 c-297 0 -455 -3 -455 -10 0 -6 -33 -10
-80 -10 -64 0 -80 -3 -80 -15 0 -11 -11 -15 -40 -15 -22 0 -40 -4 -40 -9 0 -5
-13 -12 -30 -16 -16 -4 -30 -11 -30 -16 0 -5 -11 -9 -25 -9 -16 0 -25 -6 -25
-15 0 -9 -9 -15 -25 -15 -16 0 -25 -6 -25 -15 0 -8 -7 -15 -15 -15 -8 0 -15
-4 -15 -10 0 -5 -7 -10 -15 -10 -8 0 -15 -7 -15 -15 0 -8 -7 -15 -15 -15 -16
0 -85 -65 -85 -81 0 -5 -11 -20 -25 -33 -14 -13 -25 -28 -25 -35 0 -6 -7 -11
-15 -11 -9 0 -15 -9 -15 -25 0 -14 -4 -25 -9 -25 -5 0 -12 -13 -16 -30 -4 -16
-11 -30 -16 -30 -5 0 -9 -11 -9 -24 0 -14 -7 -31 -15 -40 -8 -8 -15 -32 -15
-54 0 -22 -5 -42 -11 -44 -6 -2 -13 -25 -16 -51 -3 -26 -9 -47 -13 -47 -4 0
-10 -23 -12 -52 -3 -29 -11 -54 -17 -56 -6 -2 -11 -21 -11 -42 0 -21 -5 -40
-11 -42 -6 -2 -14 -27 -17 -56 -2 -29 -8 -52 -12 -52 -4 0 -10 -21 -13 -47 -3
-26 -10 -49 -16 -51 -6 -2 -11 -27 -11 -58 0 -41 -4 -54 -15 -54 -13 0 -15
-21 -15 -130 0 -107 3 -132 15 -136 10 -4 15 -20 15 -45 0 -21 4 -39 10 -39 5
0 12 -11 16 -25 3 -14 10 -25 15 -25 5 0 9 -11 9 -25 0 -16 6 -25 15 -25 8 0
15 -7 15 -15 0 -8 7 -15 15 -15 8 0 15 -5 15 -11 0 -14 25 -39 39 -39 6 0 11
-7 11 -15 0 -9 9 -15 25 -15 16 0 25 -6 25 -15 0 -8 7 -15 15 -15 8 0 15 -4
15 -9 0 -5 18 -11 40 -15 22 -3 40 -11 40 -16 0 -6 31 -10 70 -10 39 0 70 -4
70 -10 0 -6 275 -10 752 -12 590 -2 752 -6 756 -15 2 -7 10 -13 18 -13 8 0 14
-7 14 -15 0 -8 7 -15 15 -15 8 0 15 -4 15 -9 0 -5 10 -13 23 -17 12 -4 32 -17
44 -30 12 -13 31 -24 43 -24 11 0 20 -7 20 -15 0 -8 5 -15 11 -15 7 0 22 -11
35 -25 13 -14 30 -25 39 -25 9 0 18 -7 21 -15 4 -8 10 -15 16 -15 5 0 16 -6
23 -12 33 -30 45 -38 55 -38 5 0 10 -5 10 -10 0 -6 8 -14 18 -17 9 -4 22 -12
29 -17 34 -30 43 -36 52 -36 5 0 11 -7 15 -15 3 -8 15 -15 26 -15 11 0 20 -4
20 -10 0 -5 5 -10 10 -10 11 0 15 456 4 484 -3 9 -12 16 -20 16 -8 0 -14 7
-14 15 0 8 -9 15 -20 15 -12 0 -31 11 -44 25 -13 14 -28 25 -35 25 -6 0 -11 7
-11 15 0 8 -9 15 -20 15 -12 0 -31 11 -43 24 -12 13 -32 26 -44 30 -13 4 -23
12 -23 17 0 5 -7 9 -15 9 -8 0 -15 7 -15 15 0 8 -5 15 -11 15 -40 0 -39 -16
-39 1022 0 861 -2 997 -15 1022 -8 15 -15 45 -15 66 0 24 -5 40 -15 44 -8 3
-15 17 -15 31 0 14 -4 25 -10 25 -5 0 -10 7 -10 15 0 8 -4 15 -10 15 -5 0 -12
11 -16 25 -3 14 -12 25 -20 25 -8 0 -14 5 -14 11 0 14 -25 39 -39 39 -6 0 -11
7 -11 15 0 9 -9 15 -25 15 -16 0 -25 6 -25 15 0 9 -9 15 -25 15 -14 0 -25 4
-25 9 0 5 -13 12 -30 16 -16 4 -30 10 -30 15 0 18 -154 22 -926 26 l-802 4 -4
82 c-2 53 -8 83 -16 86 -6 2 -12 19 -12 37 0 20 -6 35 -15 39 -8 3 -15 10 -15
16 0 15 -25 40 -39 40 -6 0 -11 5 -11 11 0 14 -25 39 -39 39 -6 0 -11 7 -11
15 0 9 -9 15 -25 15 -14 0 -28 7 -31 15 -4 11 -21 15 -55 15 -27 0 -49 5 -49
10 0 7 -252 10 -735 10 -483 0 -735 -3 -735 -10z m3464 -1686 c8 -20 8 -1058
0 -1078 -6 -14 -73 -16 -655 -16 -426 0 -649 3 -649 10 0 6 -18 10 -40 10 -22
0 -40 5 -40 11 0 6 -7 18 -16 26 -12 13 -15 31 -12 82 2 38 9 66 16 69 7 2 12
24 12 54 0 31 6 55 15 64 8 9 15 33 15 55 0 21 5 39 10 39 6 0 10 18 10 39 0
22 7 46 15 55 8 8 15 32 15 54 0 22 5 42 11 44 6 2 13 25 16 51 3 26 9 47 13
47 4 0 10 23 12 52 3 29 11 54 17 56 6 2 11 17 11 33 0 16 4 29 9 29 5 0 13
10 17 22 8 25 107 128 123 128 6 0 11 7 11 15 0 9 9 15 24 15 13 0 26 7 30 15
4 11 20 15 56 15 27 0 50 5 50 10 0 7 156 10 449 10 400 0 450 -2 455 -16z
m-7204 -3433 c0 -5 14 -12 30 -16 17 -4 30 -11 30 -16 0 -5 11 -9 25 -9 16 0
25 -6 25 -15 0 -9 9 -15 25 -15 16 0 25 -6 25 -15 0 -8 7 -15 15 -15 8 0 15
-5 15 -10 0 -10 8 -21 37 -54 7 -8 15 -25 19 -40 3 -14 10 -26 15 -26 5 0 9
-16 9 -36 0 -19 7 -42 15 -50 11 -12 15 -39 15 -110 0 -75 -3 -96 -15 -100
-11 -4 -15 -21 -15 -55 0 -27 -4 -49 -10 -49 -5 0 -13 -18 -16 -40 -4 -22 -10
-40 -14 -40 -4 0 -11 -11 -14 -25 -4 -14 -11 -25 -16 -25 -6 0 -10 -9 -10 -20
0 -12 -11 -31 -24 -43 -13 -12 -26 -32 -30 -44 -4 -13 -12 -23 -17 -23 -5 0
-9 -7 -9 -15 0 -8 -7 -15 -15 -15 -8 0 -15 -5 -15 -11 0 -13 -107 -119 -120
-119 -6 0 -10 -7 -10 -15 0 -8 -7 -15 -15 -15 -8 0 -15 -4 -15 -9 0 -5 -10
-13 -22 -17 -13 -4 -33 -17 -45 -30 -12 -13 -31 -24 -43 -24 -11 0 -20 -7 -20
-15 0 -9 -9 -15 -25 -15 -14 0 -25 -4 -25 -9 0 -5 -13 -12 -30 -16 -16 -4 -30
-10 -30 -15 0 -4 -18 -10 -40 -14 -22 -3 -40 -11 -40 -16 0 -6 -25 -10 -55
-10 -30 0 -55 -4 -55 -10 0 -6 -42 -10 -105 -10 -63 0 -105 4 -105 10 0 6 -22
10 -49 10 -34 0 -51 4 -55 15 -3 8 -15 15 -26 15 -11 0 -20 5 -20 10 0 6 -7
10 -15 10 -9 0 -18 7 -21 15 -4 8 -15 15 -25 15 -10 0 -19 7 -19 15 0 8 -6 15
-14 15 -8 0 -17 11 -20 25 -4 14 -11 25 -16 25 -6 0 -10 5 -10 11 0 6 -7 17
-15 25 -8 9 -15 26 -15 39 0 13 -6 25 -12 28 -17 5 -17 315 -1 325 5 4 13 24
17 45 4 20 11 37 16 37 6 0 10 11 10 25 0 14 4 25 9 25 5 0 12 14 16 30 4 17
11 30 16 30 5 0 11 11 15 25 3 14 10 25 15 25 5 0 9 7 9 15 0 8 4 15 10 15 5
0 12 11 16 25 3 14 11 25 16 25 13 0 38 26 38 39 0 6 7 11 15 11 8 0 15 5 15
11 0 14 55 69 69 69 6 0 11 7 11 15 0 8 5 15 10 15 10 0 22 8 55 38 7 6 18 12
23 12 6 0 12 7 16 15 3 8 15 15 26 15 11 0 20 4 20 9 0 5 14 12 30 16 17 4 30
10 30 15 0 4 11 11 25 14 14 4 25 11 25 16 0 6 14 10 30 10 17 0 30 4 30 9 0
5 18 11 40 15 22 3 40 11 40 16 0 6 65 10 170 10 97 0 170 -4 170 -9z m6620 0
c0 -5 18 -11 40 -15 22 -3 40 -11 40 -16 0 -6 11 -10 25 -10 16 0 25 -6 25
-15 0 -8 5 -15 11 -15 14 0 69 -55 69 -69 0 -6 7 -11 15 -11 9 0 15 -9 15 -25
0 -16 6 -25 15 -25 10 0 15 -10 15 -29 0 -16 6 -31 13 -34 17 -5 16 -329 -1
-335 -7 -2 -12 -16 -12 -32 0 -16 -7 -35 -15 -44 -8 -8 -15 -23 -15 -34 0 -11
-7 -22 -15 -26 -8 -3 -15 -17 -15 -31 0 -14 -4 -25 -10 -25 -5 0 -10 -7 -10
-15 0 -8 -7 -15 -15 -15 -9 0 -15 -9 -15 -25 0 -16 -6 -25 -15 -25 -8 0 -15
-5 -15 -11 0 -7 -11 -22 -25 -35 -14 -13 -25 -30 -25 -39 0 -8 -7 -15 -15 -15
-8 0 -15 -4 -15 -10 0 -13 -37 -50 -50 -50 -6 0 -21 -11 -34 -25 -13 -14 -28
-25 -35 -25 -6 0 -11 -7 -11 -15 0 -8 -7 -15 -15 -15 -8 0 -15 -4 -15 -10 0
-5 -11 -12 -25 -16 -14 -3 -25 -10 -25 -14 0 -4 -11 -11 -25 -14 -14 -4 -25
-11 -25 -16 0 -6 -7 -10 -15 -10 -8 0 -15 -4 -15 -9 0 -5 -18 -11 -40 -15 -22
-3 -40 -11 -40 -16 0 -6 -10 -10 -22 -10 -13 0 -32 -7 -42 -15 -12 -9 -42 -15
-73 -15 -29 0 -53 -4 -53 -10 0 -6 -42 -10 -105 -10 -63 0 -105 4 -105 10 0 6
-16 10 -36 10 -19 0 -42 7 -50 15 -9 8 -24 15 -35 15 -10 0 -19 4 -19 9 0 5
-9 13 -21 16 -32 11 -129 111 -129 135 0 11 -7 23 -15 26 -10 4 -15 20 -15 44
0 22 -5 40 -12 43 -9 2 -13 34 -13 112 0 78 4 110 13 113 7 2 12 23 12 57 0
38 4 54 15 59 8 3 15 17 15 31 0 14 5 25 10 25 6 0 10 11 10 25 0 16 6 25 15
25 9 0 15 9 15 24 0 13 7 26 15 30 8 3 15 15 15 26 0 11 5 20 10 20 6 0 10 7
10 15 0 8 7 15 15 15 8 0 15 5 15 11 0 6 12 24 28 39 42 45 52 58 52 70 0 5 7
10 15 10 8 0 15 7 15 15 0 9 9 15 25 15 16 0 25 6 25 15 0 8 5 15 11 15 7 0
22 11 35 25 13 14 30 25 39 25 8 0 15 7 15 15 0 8 9 15 20 15 11 0 20 4 20 10
0 5 11 12 25 16 14 3 25 10 25 15 0 5 11 9 25 9 16 0 25 6 25 15 0 11 11 15
40 15 22 0 40 4 40 10 0 5 18 13 40 16 22 4 40 10 40 15 0 5 72 9 160 9 88 0
160 -4 160 -9z"/>
<path d="M4240 3380 c0 -6 -8 -14 -17 -17 -23 -9 -43 -29 -43 -42 0 -6 -7 -11
-15 -11 -8 0 -15 -7 -15 -15 0 -8 -4 -15 -10 -15 -6 0 -10 -33 -10 -80 0 -47
4 -80 10 -80 6 0 10 -11 10 -25 0 -16 6 -25 15 -25 8 0 15 -7 15 -15 0 -8 7
-15 15 -15 8 0 15 -4 15 -10 0 -5 11 -12 25 -16 14 -3 25 -10 25 -15 0 -5 25
-9 55 -9 30 0 55 5 55 10 0 6 11 10 25 10 16 0 25 6 25 15 0 9 9 15 24 15 17
0 26 7 30 25 4 14 11 25 16 25 6 0 10 14 10 30 0 20 5 30 15 30 11 0 15 11 15
39 0 22 -7 46 -15 55 -8 8 -15 26 -15 40 0 16 -6 26 -15 26 -8 0 -15 5 -15 11
0 15 -22 35 -48 43 -12 4 -22 12 -22 17 0 5 -36 9 -80 9 -48 0 -80 -4 -80 -10z"/>
<path d="M10870 3381 c0 -5 -10 -13 -22 -17 -26 -8 -48 -28 -48 -43 0 -6 -7
-11 -15 -11 -11 0 -15 -11 -15 -40 0 -22 -4 -40 -10 -40 -5 0 -10 -18 -10 -40
0 -22 5 -40 10 -40 6 0 10 -13 10 -30 0 -16 4 -30 9 -30 5 0 12 -9 16 -19 3
-11 16 -23 28 -27 11 -4 27 -13 35 -20 7 -8 20 -14 28 -14 8 0 14 -4 14 -10 0
-5 25 -10 55 -10 30 0 55 4 55 9 0 5 11 12 25 15 14 4 25 11 25 16 0 6 7 10
15 10 8 0 15 7 15 15 0 8 7 15 15 15 8 0 15 6 15 14 0 8 5 16 11 18 15 5 18
166 3 176 -6 4 -14 17 -18 30 -4 12 -12 22 -17 22 -5 0 -9 7 -9 15 0 9 -9 15
-24 15 -13 0 -26 7 -30 15 -4 12 -24 15 -86 15 -44 0 -80 -4 -80 -9z"/>
<path d="M0 5540 l0 -200 940 0 c620 0 940 3 940 10 0 6 14 10 30 10 17 0 30
4 30 10 0 5 11 12 25 16 14 3 25 12 25 20 0 8 7 14 15 14 9 0 15 9 15 21 0 11
7 28 16 36 12 13 15 31 12 80 -2 36 -9 67 -15 71 -6 4 -13 17 -17 30 -4 12
-12 22 -17 22 -5 0 -9 7 -9 15 0 9 -9 15 -24 15 -13 0 -26 7 -30 15 -5 13
-122 15 -971 15 l-965 0 0 -200z"/>
<path d="M318 4883 c-32 -2 -58 -8 -58 -13 0 -6 -7 -10 -15 -10 -8 0 -15 -7
-15 -15 0 -8 -7 -15 -15 -15 -8 0 -15 -7 -15 -15 0 -8 -4 -15 -9 -15 -5 0 -12
-11 -15 -25 -4 -14 -11 -25 -16 -25 -16 0 -12 -107 5 -124 8 -8 15 -22 15 -31
0 -14 17 -32 67 -75 7 -5 23 -10 37 -10 13 0 26 -6 28 -12 4 -10 148 -13 676
-13 523 0 674 3 683 13 7 6 25 12 41 12 30 0 81 43 93 79 3 11 11 21 16 21 5
0 9 36 9 80 0 47 -4 80 -10 80 -5 0 -10 6 -10 13 0 7 -8 20 -17 29 -10 9 -23
23 -30 30 -41 45 -8 43 -718 44 -368 0 -696 -1 -727 -3z"/>
<path d="M900 4015 c0 -8 -5 -15 -11 -15 -18 0 -69 -57 -69 -78 0 -11 -7 -22
-15 -26 -20 -7 -20 -95 0 -122 8 -10 15 -29 15 -41 0 -14 6 -23 15 -23 8 0 15
-7 15 -15 0 -8 9 -15 19 -15 10 0 21 -7 25 -15 3 -8 17 -15 31 -15 14 0 25 -4
25 -10 0 -6 92 -10 255 -10 140 0 255 4 255 9 0 4 16 11 35 14 36 6 89 51 100
86 3 12 11 21 16 21 5 0 9 36 9 80 0 64 -3 80 -15 80 -8 0 -15 5 -15 11 0 14
-55 69 -69 69 -6 0 -11 7 -11 15 0 13 -41 15 -305 15 -264 0 -305 -2 -305 -15z"/>
</g>
</svg>
