<?xml version="1.0" standalone="no"?>
<!DOCTYPE svg PUBLIC "-//W3C//DTD SVG 20010904//EN"
 "http://www.w3.org/TR/2001/REC-SVG-20010904/DTD/svg10.dtd">
<svg version="1.0" xmlns="http://www.w3.org/2000/svg"
 width="1200.000000pt" height="1200.000000pt" viewBox="0 0 1200.000000 1200.000000"
 preserveAspectRatio="xMidYMid meet">

<g transform="translate(0.000000,1200.000000) scale(0.100000,-0.100000)"
fill="#FFFFFF" stroke="none">
<path d="M4250 11953 c-359 -56 -625 -246 -764 -544 -27 -59 -164 -469 -362
-1087 l-318 -994 -36 6 c-176 31 -276 38 -490 33 -356 -8 -601 -62 -911 -202
-717 -322 -1225 -999 -1345 -1790 -25 -166 -26 -504 -1 -665 108 -694 492
-1280 1084 -1652 251 -158 571 -276 878 -324 142 -22 425 -29 570 -15 811 81
1514 568 1870 1296 281 572 317 1206 105 1810 -195 554 -624 1038 -1153 1301
-56 28 -95 54 -93 60 3 7 39 119 81 250 42 132 80 242 84 247 4 4 473 -520
1042 -1165 1283 -1454 1199 -1362 1316 -1450 296 -222 542 -278 1244 -278
l297 0 7 -57 c37 -312 184 -705 363 -973 326 -488 805 -831 1362 -976 415
-108 895 -95 1297 35 420 136 801 392 1074 721 484 583 657 1333 478 2068
-173 711 -705 1322 -1389 1597 -287 115 -552 166 -875 165 -243 0 -419 -24
-638 -87 -49 -13 -90 -23 -93 -21 -2 3 -154 335 -338 739 l-333 734 44 125
c25 69 50 138 55 153 l10 28 307 -2 306 -1 0 208 0 209 -1029 3 c-946 2 -1031
1 -1048 -14 -28 -26 -40 -81 -24 -119 54 -129 456 -269 814 -282 78 -3 142 -6
142 -7 0 0 -27 -73 -59 -161 l-58 -160 -1971 -3 c-1085 -1 -1972 1 -1972 5 0
28 145 455 171 503 60 113 188 205 318 230 31 6 231 10 477 10 l424 0 0 250 0
250 -447 -1 c-247 -1 -459 -3 -473 -6z m3285 -1760 c-6 -17 -1008 -2800 -1027
-2855 -11 -31 -17 -31 -147 3 -118 31 -219 90 -315 183 -60 57 -1991 2237
-2364 2669 -14 16 78 17 1923 17 1838 0 1937 -1 1930 -17z m684 -570 c107
-236 209 -461 227 -500 l33 -73 -97 -65 c-352 -234 -622 -541 -807 -918 -111
-226 -184 -458 -216 -684 l-13 -93 -159 0 c-150 0 -158 1 -155 19 5 30 982
2741 988 2741 3 0 93 -192 199 -427z m-5657 -764 c83 -11 88 -13 82 -33 -4
-11 -127 -397 -275 -856 -148 -460 -274 -858 -280 -886 -22 -97 37 -216 132
-264 114 -59 259 -17 323 92 13 24 149 432 302 908 152 476 278 866 280 868 5
7 123 -58 209 -115 185 -122 336 -263 464 -433 362 -481 463 -1112 270 -1684
-158 -466 -494 -848 -934 -1062 -648 -314 -1423 -220 -1976 242 -647 539 -842
1457 -470 2211 267 542 774 915 1370 1008 108 16 386 19 503 4z m7463 -19
c365 -79 678 -246 928 -495 711 -708 730 -1837 44 -2562 -878 -927 -2412 -694
-2972 452 -80 164 -139 346 -163 497 l-9 58 941 2 941 3 41 22 c93 50 154 163
139 256 -4 23 -179 419 -388 880 -306 673 -378 840 -367 847 18 11 137 38 245
56 128 21 493 12 620 -16z m-1040 -902 l292 -643 -710 -3 c-391 -1 -712 -1
-713 1 -7 7 47 242 76 328 34 102 123 295 173 374 124 197 319 409 487 527 52
37 97 65 99 62 2 -2 136 -293 296 -646z"/>
<path d="M2103 4030 c-598 -75 -1127 -406 -1452 -910 -23 -34 -41 -67 -41 -72
0 -4 388 -8 863 -8 l862 0 410 -492 c226 -271 410 -498 410 -506 0 -8 -184
-236 -410 -507 l-410 -494 -862 0 c-475 -1 -863 -4 -863 -7 0 -3 21 -38 46
-77 310 -481 815 -806 1388 -894 150 -23 432 -23 581 0 706 109 1293 573 1561
1232 l32 80 2645 3 2645 2 69 -58 c301 -252 701 -341 1069 -237 127 36 313
131 414 213 654 525 558 1546 -182 1941 -167 89 -344 132 -550 132 -288 0
-526 -89 -757 -281 l-60 -50 -2723 0 -2723 0 -34 57 c-61 102 -182 253 -285
356 -289 291 -663 487 -1066 559 -130 23 -454 33 -577 18z m8392 -1175 c105
-26 220 -91 300 -169 84 -83 133 -160 171 -271 24 -70 28 -96 28 -200 1 -99
-3 -133 -22 -195 -35 -112 -86 -196 -171 -281 -86 -85 -150 -125 -266 -165
-110 -38 -273 -40 -385 -5 -139 43 -239 108 -327 212 -172 204 -202 498 -76
742 55 106 173 221 285 277 48 23 110 48 140 55 75 19 251 18 323 0z"/>
</g>
</svg>
